<svg width="25" height="25" viewBox="0 0 25 25" fill="none" xmlns="http://www.w3.org/2000/svg">
<path d="M22.1478 10.1987H2.7793V19.3996C2.7793 22.8499 3.98982 24 7.6214 24H17.3056C20.9372 24 22.1478 22.8499 22.1478 19.3996V10.1987Z" stroke="#292D32" stroke-width="2" stroke-miterlimit="10" stroke-linecap="round" stroke-linejoin="round"/>
<path d="M24 6.74825V7.89837C24 9.16349 23.3584 10.1986 21.5789 10.1986H3.42105C1.56895 10.1986 1 9.16349 1 7.89837V6.74825C1 5.48313 1.56895 4.44803 3.42105 4.44803H21.5789C23.3584 4.44803 24 5.48313 24 6.74825Z" stroke="#292D32" stroke-width="2" stroke-miterlimit="10" stroke-linecap="round" stroke-linejoin="round"/>
<path d="M12.064 4.44746H5.3819C4.97032 4.02192 4.98242 3.36636 5.41821 2.95232L7.13716 1.31916C7.58505 0.893615 8.32347 0.893615 8.77137 1.31916L12.064 4.44746Z" stroke="#292D32" stroke-width="2" stroke-miterlimit="10" stroke-linecap="round" stroke-linejoin="round"/>
<path d="M19.6059 4.44746H12.9238L16.2165 1.31916C16.6644 0.893615 17.4028 0.893615 17.8507 1.31916L19.5696 2.95232C20.0054 3.36636 20.0175 4.02192 19.6059 4.44746Z" stroke="#292D32" stroke-width="2" stroke-miterlimit="10" stroke-linecap="round" stroke-linejoin="round"/>
<path d="M8.79492 10.1987V16.1103C8.79492 17.0304 9.86018 17.5709 10.6712 17.0764L11.8091 16.3633C12.2207 16.1103 12.7412 16.1103 13.1407 16.3633L14.218 17.0534C15.017 17.5594 16.0943 17.0189 16.0943 16.0988V10.1987H8.79492Z" stroke="#292D32" stroke-width="2" stroke-miterlimit="10" stroke-linecap="round" stroke-linejoin="round"/>
</svg>
