<svg width="23" height="23" viewBox="0 0 23 23" fill="none" xmlns="http://www.w3.org/2000/svg">
<path d="M11.4997 12.3023C7.59659 12.3023 4.41992 9.54233 4.41992 6.15116C4.41992 2.76 7.59659 0 11.4997 0C15.4028 0 18.5795 2.76 18.5795 6.15116C18.5795 9.54233 15.4028 12.3023 11.4997 12.3023ZM11.4997 1.60465C8.61854 1.60465 6.26682 3.64791 6.26682 6.15116C6.26682 8.65442 8.61854 10.6977 11.4997 10.6977C14.3809 10.6977 16.7326 8.65442 16.7326 6.15116C16.7326 3.64791 14.3809 1.60465 11.4997 1.60465Z" fill="#292D32"/>
<path d="M22.0765 23.0001C21.5717 23.0001 21.1531 22.6364 21.1531 22.1978C21.1531 18.5071 16.8192 15.5117 11.5001 15.5117C6.18095 15.5117 1.8469 18.5071 1.8469 22.1978C1.8469 22.6364 1.42827 23.0001 0.92345 23.0001C0.418631 23.0001 0 22.6364 0 22.1978C0 17.6299 5.159 13.9071 11.5001 13.9071C17.8411 13.9071 23 17.6299 23 22.1978C23 22.6364 22.5814 23.0001 22.0765 23.0001Z" fill="#292D32"/>
</svg>
